<?xml version="1.0" standalone="no"?><!DOCTYPE svg PUBLIC "-//W3C//DTD SVG 1.1//EN" "http://www.w3.org/Graphics/SVG/1.1/DTD/svg11.dtd"><svg xmlns="http://www.w3.org/2000/svg" width="1000.0" height="1000.0"><g fill="black"><g transform=" rotate(30.0 500.0 300.0) skewX(30.0) "><rect x="25.0" y="500.0" width="300.0" height="300.0" /><g fill="Green"><rect x="25.0" y="500.0" width="300.0" height="300.0" rx="30.0" ry="30.0" transform=" translate(25.0 360.0) scale(0.3 0.3) " /><rect x="25.0" y="500.0" width="300.0" height="300.0" rx="30.0" ry="30.0" transform=" translate(123.0 360.0) scale(0.3 0.3) " /><rect x="25.0" y="500.0" width="300.0" height="300.0" rx="30.0" ry="30.0" transform=" translate(221.0 360.0) scale(0.3 0.3) " /><rect x="25.0" y="500.0" width="300.0" height="300.0" rx="30.0" ry="30.0" transform=" translate(25.0 456.0) scale(0.3 0.3) " /><rect x="25.0" y="500.0" width="300.0" height="300.0" rx="30.0" ry="30.0" transform=" translate(123.0 456.0) scale(0.3 0.3) " /><rect x="25.0" y="500.0" width="300.0" height="300.0" rx="30.0" ry="30.0" transform=" translate(221.0 456.0) scale(0.3 0.3) " /><rect x="25.0" y="500.0" width="300.0" height="300.0" rx="30.0" ry="30.0" transform=" translate(25.0 552.0) scale(0.3 0.3) " /><rect x="25.0" y="500.0" width="300.0" height="300.0" rx="30.0" ry="30.0" transform=" translate(123.0 552.0) scale(0.3 0.3) " /><rect x="25.0" y="500.0" width="300.0" height="300.0" rx="30.0" ry="30.0" transform=" translate(221.0 552.0) scale(0.3 0.3) " /></g></g><g transform=" rotate(150.0 500.0 500.0) translate(655.0 -325.0) skewX(-30.0) "><rect x="25.0" y="500.0" width="300.0" height="300.0" /><g fill="Red"><rect x="25.0" y="500.0" width="300.0" height="300.0" rx="30.0" ry="30.0" transform=" translate(25.0 358.0) scale(0.3 0.3) " /><rect x="25.0" y="500.0" width="300.0" height="300.0" rx="30.0" ry="30.0" transform=" translate(123.0 358.0) scale(0.3 0.3) " /><rect x="25.0" y="500.0" width="300.0" height="300.0" rx="30.0" ry="30.0" transform=" translate(221.0 358.0) scale(0.3 0.3) " /><rect x="25.0" y="500.0" width="300.0" height="300.0" rx="30.0" ry="30.0" transform=" translate(25.0 454.0) scale(0.3 0.3) " /><rect x="25.0" y="500.0" width="300.0" height="300.0" rx="30.0" ry="30.0" transform=" translate(123.0 454.0) scale(0.3 0.3) " /><rect x="25.0" y="500.0" width="300.0" height="300.0" rx="30.0" ry="30.0" transform=" translate(221.0 454.0) scale(0.3 0.3) " /><rect x="25.0" y="500.0" width="300.0" height="300.0" rx="30.0" ry="30.0" transform=" translate(25.0 550.0) scale(0.3 0.3) " /><rect x="25.0" y="500.0" width="300.0" height="300.0" rx="30.0" ry="30.0" transform=" translate(123.0 550.0) scale(0.3 0.3) " /><rect x="25.0" y="500.0" width="300.0" height="300.0" rx="30.0" ry="30.0" transform=" translate(221.0 550.0) scale(0.3 0.3) " /></g></g><g transform=" translate(649.0 123.5) scale(0.99 0.98) scale(0.95 0.95) rotate(30.0 500.0 500.0) skewX(-30.0) "><rect x="25.0" y="500.0" width="320.0" height="276.0" /><g fill="Blue"><rect x="25.0" y="500.0" width="320.0" height="276.0" rx="30.0" ry="30.0" transform=" translate(28.0 359.5) scale(0.3 0.3) " /><rect x="25.0" y="500.0" width="320.0" height="276.0" rx="30.0" ry="30.0" transform=" translate(133.0 359.5) scale(0.3 0.3) " /><rect x="25.0" y="500.0" width="320.0" height="276.0" rx="30.0" ry="30.0" transform=" translate(238.0 359.5) scale(0.3 0.3) " /><rect x="25.0" y="500.0" width="320.0" height="276.0" rx="30.0" ry="30.0" transform=" translate(28.0 450.5) scale(0.3 0.3) " /><rect x="25.0" y="500.0" width="320.0" height="276.0" rx="30.0" ry="30.0" transform=" translate(133.0 450.5) scale(0.3 0.3) " /><rect x="25.0" y="500.0" width="320.0" height="276.0" rx="30.0" ry="30.0" transform=" translate(238.0 450.5) scale(0.3 0.3) " /><rect x="25.0" y="500.0" width="320.0" height="276.0" rx="30.0" ry="30.0" transform=" translate(28.0 541.5) scale(0.3 0.3) " /><rect x="25.0" y="500.0" width="320.0" height="276.0" rx="30.0" ry="30.0" transform=" translate(133.0 541.5) scale(0.3 0.3) " /><rect x="25.0" y="500.0" width="320.0" height="276.0" rx="30.0" ry="30.0" transform=" translate(238.0 541.5) scale(0.3 0.3) " /></g></g></g></svg>